<?xml version="1.0" encoding="iso-8859-1"?>
<!-- Generator: Adobe Illustrator 19.0.0, SVG Export Plug-In . SVG Version: 6.00 Build 0)  -->
<svg xmlns="http://www.w3.org/2000/svg" xmlns:xlink="http://www.w3.org/1999/xlink" version="1.1" id="Capa_1" x="0px" y="0px" viewBox="0 0 512 512" style="enable-background:new 0 0 512 512;" xml:space="preserve" width="512px" height="512px">
<g>
	<g>
		<path d="M481.75,123.08V60h-60.125v30h30.125v33.08c-17.459,6.192-30,22.865-30,42.42s12.541,36.228,30,42.42V241H421.5v30h60.25    v-63.08c17.459-6.192,30-22.865,30-42.42S499.209,129.272,481.75,123.08z" fill="#FFFFFF"/>
	</g>
</g>
<g>
	<g>
		<path d="M90.5,271v-30H30.25v63.08c-17.459,6.192-30,22.865-30,42.42c0,19.555,12.541,36.228,30,42.42V452h60.125v-30H60.25    v-33.08c17.459-6.192,30-22.865,30-42.42s-12.541-36.228-30-42.42V271H90.5z" fill="#FFFFFF"/>
	</g>
</g>
<g>
	<g>
		<path d="M120.25,0v150h272V0H120.25z M211.25,90h-30V60h30V90z M271.25,90h-30V60h30V90z M331.25,90h-30V60h30V90z" fill="#FFFFFF"/>
	</g>
</g>
<g>
	<g>
		<path d="M120.25,181v150h272V181H120.25z M211.25,271h-30v-30h30V271z M271.25,271h-30v-30h30V271z M331.25,271h-30v-30h30V271z" fill="#FFFFFF"/>
	</g>
</g>
<g>
	<g>
		<path d="M120.25,362v150h272V362H120.25z M211.25,452h-30v-30h30V452z M271.25,452h-30v-30h30V452z M331.25,452h-30v-30h30V452z" fill="#FFFFFF"/>
	</g>
</g>
<g>
</g>
<g>
</g>
<g>
</g>
<g>
</g>
<g>
</g>
<g>
</g>
<g>
</g>
<g>
</g>
<g>
</g>
<g>
</g>
<g>
</g>
<g>
</g>
<g>
</g>
<g>
</g>
<g>
</g>
</svg>
