<?xml version="1.0" encoding="iso-8859-1"?>
<!-- Generator: Adobe Illustrator 18.0.0, SVG Export Plug-In . SVG Version: 6.00 Build 0)  -->
<!DOCTYPE svg PUBLIC "-//W3C//DTD SVG 1.1//EN" "http://www.w3.org/Graphics/SVG/1.1/DTD/svg11.dtd">
<svg xmlns="http://www.w3.org/2000/svg" xmlns:xlink="http://www.w3.org/1999/xlink" version="1.1" id="Capa_1" x="0px" y="0px" viewBox="0 0 293.664 293.664" style="enable-background:new 0 0 293.664 293.664;" xml:space="preserve" width="512px" height="512px">
<path d="M292.028,116.218c0-13.656-11.071-24.728-24.728-24.728h-5.52c7.023-4.362,11.703-12.142,11.703-21.018  c0-13.656-11.071-24.728-24.728-24.728h-7.994c7.023-4.362,11.703-12.142,11.703-21.018C252.464,11.071,241.393,0,227.737,0  c-11.885,0-124.134,0.001-126.185,0.001c-19.301,0-36.35,9.82-46.417,24.727H1.636v120.59H46.94  c2.224,9.651,7.128,18.504,14.229,25.784c40.383,41.399,66.244,78.558,82.754,108.385c7.338,13.257,20.807,17.498,33.142,11.53  c11.074-5.358,16.361-17.871,13.01-29.298c-5.82-19.907-11.949-43.293-29.095-75.029h92.113c13.656,0,24.728-11.071,24.728-24.728  c0-8.876-4.679-16.656-11.703-21.018h1.18C280.956,140.945,292.028,129.874,292.028,116.218z" fill="#ff0000"/>
<g>
</g>
<g>
</g>
<g>
</g>
<g>
</g>
<g>
</g>
<g>
</g>
<g>
</g>
<g>
</g>
<g>
</g>
<g>
</g>
<g>
</g>
<g>
</g>
<g>
</g>
<g>
</g>
<g>
</g>
</svg>
